<?xml version="1.0" standalone="no"?>
<!DOCTYPE svg PUBLIC "-//W3C//DTD SVG 20010904//EN"
 "http://www.w3.org/TR/2001/REC-SVG-20010904/DTD/svg10.dtd">
<svg version="1.0" xmlns="http://www.w3.org/2000/svg"
 width="287.000000pt" height="348.000000pt" viewBox="0 0 287.000000 348.000000"
 preserveAspectRatio="xMidYMid meet">

<g transform="translate(0.000000,348.000000) scale(0.100000,-0.100000)"
fill="#000000" stroke="none">
<path d="M152 2008 l3 -1273 1268 -3 1267 -2 0 1275 0 1275 -1270 0 -1270 0 2
-1272z m1528 1092 c115 -15 266 -45 378 -77 l92 -27 0 -335 c0 -353 -5 -403
-50 -534 -91 -263 -323 -492 -604 -597 -68 -26 -100 -23 -195 17 -173 72 -314
182 -426 333 -76 103 -116 181 -152 297 -27 88 -27 90 -31 454 l-3 366 73 21
c106 32 249 62 363 77 124 16 441 19 555 5z m-69 -1699 c20 -21 29 -39 29 -63
0 -25 9 -42 40 -71 21 -22 42 -47 45 -58 6 -18 25 -27 25 -11 0 4 18 20 39 36
l39 28 -20 34 c-17 29 -18 38 -8 69 30 90 170 76 170 -17 0 -27 1 -28 55 -28
l55 0 0 -50 0 -50 48 34 c65 47 142 68 239 64 l78 -3 0 -175 0 -175 -47 -3
c-31 -2 -48 -8 -48 -16 0 -7 -9 -25 -21 -40 -16 -20 -29 -26 -60 -26 -52 0
-74 13 -87 49 l-11 30 -118 3 -118 3 -2 65 c-1 36 -2 73 -2 83 -2 57 -93 -27
-107 -99 l-9 -49 -62 -3 c-35 -2 -63 -7 -63 -12 0 -6 -61 -10 -149 -10 -120 0
-151 -3 -161 -15 -10 -12 -36 -15 -116 -15 -57 0 -104 4 -104 8 0 4 18 25 40
47 37 36 39 40 23 57 -9 10 -19 18 -23 18 -3 0 -39 -31 -79 -70 l-73 -70 -99
0 c-55 0 -99 3 -99 8 0 4 50 57 110 117 66 65 110 118 110 129 0 14 -35 -15
-123 -102 -79 -78 -131 -122 -145 -122 -11 0 -24 -4 -27 -10 -8 -12 -361 -14
-369 -2 -3 5 10 24 29 42 34 33 35 34 16 54 -32 36 -51 83 -51 130 0 55 14 93
47 128 14 14 22 31 19 37 -12 18 56 44 115 44 98 -1 175 -60 202 -154 l12 -41
35 36 c32 33 40 36 93 36 l57 0 0 44 c0 48 9 56 65 56 43 0 115 -26 131 -48
12 -16 14 -16 28 4 29 40 156 85 156 55 0 -5 15 -13 33 -16 17 -4 44 -14 59
-21 26 -13 26 -13 19 14 -16 56 27 111 87 112 13 0 37 -13 53 -29z"/>
<path d="M1135 3035 c-120 -16 -237 -41 -323 -67 l-64 -19 4 -337 4 -337 28
-85 c25 -76 62 -157 99 -215 20 -33 115 -149 139 -170 111 -99 188 -151 293
-197 93 -41 104 -42 177 -14 237 89 448 295 537 524 52 137 61 212 61 538 l0
293 -67 20 c-261 75 -617 102 -888 66z m308 -28 c-44 -10 -59 -27 -23 -27 11
0 20 -4 20 -10 0 -5 -7 -10 -15 -10 -8 0 -15 -4 -15 -10 0 -5 -3 -9 -7 -9 -24
4 -43 -3 -43 -14 0 -9 16 -12 56 -11 52 2 64 -10 20 -18 -11 -1 31 -2 94 -1
81 1 115 5 121 15 18 27 8 -8 -10 -37 -14 -25 -26 -31 -57 -33 -266 -18 -518
-245 -582 -526 -9 -42 -22 -76 -28 -76 -6 0 -35 13 -65 30 -30 16 -58 30 -63
30 -20 0 27 -38 52 -43 15 -3 36 -14 47 -25 11 -10 27 -16 35 -14 8 3 11 1 7
-4 -4 -4 -31 -9 -60 -9 -43 -1 -51 -4 -49 -18 2 -13 -4 -11 -25 9 -15 14 -35
32 -44 40 -10 9 -19 28 -21 42 -5 34 -13 356 -13 521 l0 124 55 19 c60 20 290
65 360 71 25 1 101 3 170 3 102 0 117 -2 83 -9z m311 -102 c0 -5 -4 -22 -8
-37 -7 -24 -2 -34 35 -72 23 -25 47 -42 52 -39 6 4 7 1 3 -6 -5 -7 0 -21 9
-31 11 -12 15 -28 11 -43 -4 -18 13 -57 74 -160 89 -152 91 -166 28 -205 -18
-12 -42 -31 -52 -43 -19 -22 -20 -22 -30 -4 -19 32 -46 56 -57 50 -5 -4 2 -15
16 -27 38 -30 31 -39 -27 -36 -45 3 -53 6 -56 24 -4 31 -72 90 -112 98 -19 3
-51 17 -72 31 l-37 25 -20 -27 c-47 -59 -46 -123 3 -221 22 -43 27 -65 27
-125 0 -39 -7 -94 -16 -120 -14 -46 -89 -203 -104 -220 -5 -4 -28 34 -53 85
-44 90 -87 154 -156 233 -27 30 -36 35 -44 24 -8 -11 -9 -10 -4 4 6 19 -77
103 -100 101 -7 -1 -12 2 -11 5 1 4 -11 19 -27 33 l-29 25 12 64 c7 35 35 111
63 169 66 138 161 236 289 299 79 39 190 70 250 71 18 0 30 8 40 28 8 15 20
31 27 35 7 5 11 11 8 15 -2 4 12 7 32 7 21 0 37 -4 36 -10z m-192 -541 c3 -22
22 -67 42 -99 90 -150 69 -279 -75 -453 -34 -41 -63 -72 -65 -69 -2 2 13 42
35 88 73 157 79 255 22 373 -37 75 -39 132 -7 181 23 35 39 27 48 -21z m-739
-184 c-3 -11 -7 -20 -9 -20 -2 0 -4 9 -4 20 0 11 4 20 9 20 5 0 7 -9 4 -20z
m24 -12 c-3 -8 -6 -5 -6 6 -1 11 2 17 5 13 3 -3 4 -12 1 -19z m183 18 c0 -3
-4 -8 -10 -11 -5 -3 -10 -1 -10 4 0 6 5 11 10 11 6 0 10 -2 10 -4z m-19 -33
c13 -15 12 -15 -8 -4 -24 12 -29 21 -14 21 5 0 15 -7 22 -17z m39 -8 c14 -19
14 -19 -2 -6 -10 7 -18 18 -18 24 0 6 1 8 3 6 1 -2 9 -13 17 -24z m35 -4 c3
-5 2 -12 -3 -15 -5 -3 -9 1 -9 9 0 17 3 19 12 6z m-235 -38 c-11 -17 -11 -17
-6 0 3 10 6 24 7 30 0 9 2 9 5 0 3 -7 0 -20 -6 -30z"/>
<path d="M1388 2883 c7 -3 16 -2 19 1 4 3 -2 6 -13 5 -11 0 -14 -3 -6 -6z"/>
<path d="M829 2368 c-4 -21 -7 -79 -3 -75 7 7 14 77 8 77 -2 0 -4 -1 -5 -2z"/>
<path d="M800 2276 c0 -9 5 -16 10 -16 6 0 10 4 10 9 0 6 -4 13 -10 16 -5 3
-10 -1 -10 -9z"/>
<path d="M878 2243 c-19 -5 -25 -23 -9 -23 5 0 18 -3 28 -6 15 -5 15 -4 3 5
-13 9 -13 11 2 11 9 0 20 -4 23 -10 3 -5 12 -10 18 -10 7 0 1 9 -13 20 -14 11
-27 19 -30 19 -3 -1 -13 -3 -22 -6z"/>
<path d="M1516 1374 c-40 -40 7 -109 59 -86 32 15 41 47 21 77 -19 29 -57 33
-80 9z"/>
<path d="M1840 1371 c-16 -32 -12 -59 14 -76 52 -34 114 36 70 79 -22 23 -71
20 -84 -3z"/>
<path d="M499 1267 c-21 -14 -41 -41 -53 -69 -17 -42 -18 -52 -7 -90 8 -24 28
-57 48 -76 l36 -33 -23 -25 -23 -24 60 0 61 0 60 65 c50 52 62 73 67 109 19
124 -122 213 -226 143z m121 -77 c40 -40 15 -110 -40 -110 -34 0 -57 18 -65
52 -5 21 -1 33 19 52 30 31 59 33 86 6z"/>
<path d="M1022 1248 c2 -35 6 -42 21 -40 30 5 67 -25 67 -55 0 -19 -24 -50
-97 -124 l-97 -99 60 0 60 0 71 73 c80 81 93 102 93 147 0 76 -68 140 -149
140 -32 0 -32 -1 -29 -42z"/>
<path d="M1285 1267 c-29 -16 -45 -35 -59 -68 -25 -61 -16 -108 29 -158 34
-38 35 -38 15 -56 -31 -28 -24 -35 33 -35 44 0 58 4 77 25 23 25 24 25 217 25
l193 0 0 23 c0 40 53 111 98 131 39 18 42 22 42 58 0 45 -18 50 -79 18 -55
-28 -100 -77 -130 -140 l-26 -55 -6 55 c-8 68 -20 97 -53 133 -23 24 -64 47
-86 47 -9 0 -30 -54 -30 -76 0 -8 7 -14 15 -14 25 0 65 -47 65 -75 0 -25 -2
-26 -47 -23 l-48 3 -1 47 c-1 68 -21 105 -69 133 -52 31 -98 31 -150 2z m113
-73 c45 -31 19 -114 -36 -114 -36 0 -62 27 -62 66 0 34 28 64 60 64 9 0 26 -7
38 -16z"/>
<path d="M1970 1140 l0 -140 89 0 88 0 6 36 c8 49 51 102 98 120 36 15 39 19
39 56 0 40 0 40 -32 34 -46 -9 -114 -52 -143 -90 -14 -18 -34 -58 -44 -87
l-20 -54 0 133 -1 132 -40 0 -40 0 0 -140z"/>
<path d="M2330 1140 l0 -140 40 0 40 0 0 140 0 140 -40 0 -40 0 0 -140z"/>
<path d="M768 1080 c-65 -66 -118 -123 -118 -125 0 -3 24 -5 52 -5 l53 0 117
117 c65 65 118 121 118 125 0 5 -24 8 -52 8 l-53 0 -117 -120z"/>
<path d="M2221 1121 c-27 -27 -26 -47 3 -76 23 -23 23 -24 5 -41 -39 -35 -12
-98 40 -92 50 6 58 70 13 104 -14 10 -13 13 6 23 25 13 30 62 10 79 -29 22
-57 23 -77 3z"/>
<path d="M1855 578 c-24 -19 -27 -26 -22 -65 4 -40 -4 -56 -18 -33 -3 5 -25
15 -48 21 -23 6 -45 16 -49 22 -10 16 -80 -8 -117 -39 l-31 -26 -30 22 c-16
11 -52 24 -81 27 -58 7 -69 -2 -69 -54 0 -33 0 -33 -52 -33 -46 0 -56 -4 -89
-36 l-37 -36 -7 33 c-12 53 -51 107 -95 129 -66 34 -180 21 -180 -21 0 -9 -6
-19 -13 -22 -8 -3 -22 -22 -32 -43 -17 -36 -19 -37 -29 -19 -38 68 -123 114
-187 100 -27 -6 -28 -10 -27 -50 1 -24 0 -46 -2 -48 -3 -2 -24 -7 -47 -10 -36
-4 -43 -2 -43 12 0 39 -77 80 -95 51 -16 -25 -25 -5 -25 55 l0 65 -54 0 -54 0
-3 -129 c-4 -112 -7 -133 -25 -158 -22 -30 -71 -59 -116 -68 -27 -5 -28 -8
-28 -61 l0 -57 51 7 c52 7 122 36 134 56 12 19 24 -1 18 -30 l-5 -30 61 0 c33
0 61 3 61 8 0 4 19 8 42 9 24 2 75 5 113 8 l70 6 68 67 c38 37 76 81 84 97
l16 30 10 -30 c5 -16 21 -42 34 -57 26 -28 25 -36 -10 -75 l-20 -23 155 0
c113 0 165 4 189 14 19 8 79 60 133 115 55 55 103 98 108 95 22 -14 0 -48 -91
-137 l-99 -97 87 0 87 0 64 65 c35 36 68 65 72 65 4 0 15 -11 24 -25 17 -25
16 -27 -16 -60 l-34 -35 91 0 c51 0 95 5 98 10 4 6 61 10 140 10 100 0 134 3
138 13 3 8 21 13 48 12 52 -2 69 8 69 42 0 14 7 37 16 53 20 32 72 66 84 54 5
-5 10 -40 12 -79 l3 -70 90 -2 c50 0 95 -1 102 -2 6 -1 16 -15 22 -31 21 -62
116 -57 139 8 9 28 14 30 46 27 l36 -3 0 154 0 154 -68 0 c-86 0 -154 -20
-203 -59 -21 -17 -40 -31 -43 -31 -3 0 -6 20 -6 45 l0 45 -50 0 c-47 0 -50 2
-50 25 0 14 -12 37 -26 52 -20 20 -31 24 -56 19 -41 -8 -55 -21 -63 -56 -4
-20 0 -40 12 -61 14 -25 15 -33 5 -37 -8 -2 -29 -17 -47 -33 l-33 -29 -22 35
c-12 20 -33 43 -46 52 -18 11 -24 24 -24 50 0 38 -37 83 -68 83 -11 0 -32 -10
-47 -22z m83 -23 c23 -28 19 -61 -8 -78 -16 -9 -15 -12 13 -26 42 -21 73 -70
82 -127 l7 -47 17 39 c25 55 88 112 141 128 53 16 63 10 58 -34 -2 -27 -11
-38 -43 -56 -48 -27 -75 -60 -84 -105 l-7 -34 -176 -3 c-160 -2 -177 -4 -193
-22 -14 -16 -31 -20 -77 -20 l-59 0 20 27 c21 26 21 27 2 47 -10 12 -26 35
-34 51 -9 17 -16 24 -17 16 0 -7 -32 -46 -72 -87 -71 -73 -72 -74 -123 -74
-28 0 -54 2 -57 5 -2 3 33 44 79 91 56 58 83 94 83 110 0 24 -25 44 -57 44
-10 0 -70 -52 -133 -115 l-115 -115 -57 0 c-32 0 -58 2 -58 3 0 2 53 56 118
121 l117 117 52 -4 52 -3 3 40 3 41 43 -1 c50 -1 90 -26 113 -71 l16 -31 17
33 c19 35 80 75 115 75 38 0 96 -30 116 -59 22 -33 30 -32 39 4 5 18 1 34 -14
52 -25 32 -25 48 0 73 27 27 54 25 78 -5z m294 8 c35 -31 10 -93 -38 -93 -48
0 -70 55 -37 92 20 22 51 23 75 1z m-1818 -124 c-1 -102 -5 -124 -27 -171 -34
-75 -121 -138 -192 -138 -23 0 -25 4 -25 40 0 35 3 40 23 40 34 0 99 41 118
75 14 23 18 56 20 145 0 63 3 119 6 123 3 4 21 7 41 5 l37 -3 -1 -116z m367
24 c36 -21 59 -64 59 -108 0 -33 -9 -47 -77 -116 l-76 -79 -61 0 -60 0 92 92
c58 58 92 101 92 114 0 22 -35 44 -70 44 -16 0 -20 7 -20 33 0 19 3 37 7 41
10 10 83 -4 114 -21z m303 13 c44 -18 76 -72 76 -127 0 -50 -16 -78 -78 -138
-40 -38 -48 -41 -98 -41 -59 0 -63 4 -37 32 16 18 16 20 -9 41 -35 30 -48 58
-48 107 0 106 94 168 194 126z m1267 -98 l0 -103 19 40 c31 69 119 135 180
135 33 0 27 -80 -7 -91 -7 -2 1 -12 17 -21 l29 -17 -2 77 -2 77 43 0 43 0 0
-130 0 -130 -40 0 c-37 0 -41 -3 -41 -24 0 -31 -27 -61 -53 -61 -48 0 -74 61
-41 94 14 15 14 17 0 32 -9 8 -16 25 -16 37 0 19 -2 19 -14 7 -8 -8 -19 -31
-23 -50 l-9 -35 -85 0 -84 0 -3 133 -3 132 46 0 45 0 1 -102z m-1833 60 c19
-19 14 -46 -13 -64 -26 -17 -39 -13 -54 15 -21 38 37 79 67 49z m102 -98 c0
-31 -4 -40 -17 -40 -14 0 -13 -3 5 -16 38 -26 22 -74 -25 -74 -29 0 -48 33
-33 60 18 34 -8 24 -51 -18 -27 -28 -40 -51 -45 -80 -6 -41 -8 -42 -45 -42
-45 0 -47 8 -23 89 27 92 112 158 207 160 25 1 27 -2 27 -39z m-70 -135 c7 -8
10 -25 6 -40 -5 -20 -13 -25 -36 -25 -23 0 -31 5 -36 25 -7 29 10 55 36 55 10
0 23 -7 30 -15z"/>
<path d="M1692 388 c-29 -36 -12 -88 27 -88 47 0 72 49 41 80 -23 23 -53 26
-68 8z"/>
<path d="M1860 340 l0 -40 40 0 c44 0 45 1 28 33 -30 57 -68 61 -68 7z"/>
<path d="M985 380 c-24 -27 -13 -68 22 -76 33 -9 57 6 61 38 6 50 -49 76 -83
38z"/>
<path d="M2572 258 c-16 -16 -15 -28 1 -28 7 0 13 9 14 20 2 23 1 24 -15 8z"/>
</g>
</svg>
